<svg xmlns="http://www.w3.org/2000/svg" viewBox="0 0 205.83 32"><defs><style>.cls-1{font-size:28.35px;}.cls-1,.cls-2,.cls-3,.cls-4{fill:#f9c1c5;}.cls-1,.cls-3,.cls-4{font-family:Smoedy;}.cls-3{font-size:24.61px;}.cls-4{font-size:21.66px;}</style></defs><title>logo-header-rosa</title><g id="Capa_2" data-name="Capa 2"><g id="Layer_1" data-name="Layer 1"><text class="cls-1" transform="translate(94.29 25.83)">Ahumado</text><path class="cls-2" d="M70.52,7.36a2,2,0,0,1,.68-1.43,3.56,3.56,0,0,0,1.06-2.16,1.29,1.29,0,0,1,1.18-1c.54,0,1.06.14,1.06.62A2,2,0,0,1,74,4.5a3.07,3.07,0,0,0-.83,1.91c0,.32.07.57.07.79s-.14.59-.76,1a1.81,1.81,0,0,1-.93.31A1,1,0,0,1,70.52,7.36Z"/><text class="cls-3" transform="translate(20.07 25.83)">salmon</text><text class="cls-4" transform="translate(0 26.88)">el</text></g></g></svg>